<svg xmlns="http://www.w3.org/2000/svg" viewBox="0 0 64 64" role="img" aria-label="RINOTSUKA"><circle cx="32" cy="34" r="22" fill="#FAF3E5" stroke="#2A2418" stroke-width="2.4"/><path d="M16 30q-2-12 10-18q12-6 22 0q12 8 8 18q-4 10-18 12q-18 2-22-12z" fill="#F4E5BB" stroke="#2A2418" stroke-width="2.4" stroke-linejoin="round"/><g fill="none" stroke-linecap="round"><path d="M26 12q3-6 7-6" stroke="#E8B85E" stroke-width="3"/><path d="M34 8q2-4 4-3" stroke="#E8B85E" stroke-width="3"/><path d="M40 11q4-1 5 3" stroke="#E8B85E" stroke-width="3"/></g><ellipse cx="22" cy="32" rx="3.5" ry="2.6" fill="#E68B6F" opacity="0.9"/><ellipse cx="42" cy="32" rx="3.5" ry="2.6" fill="#E68B6F" opacity="0.9"/><circle cx="28" cy="26" r="2" fill="#2A2418"/><path d="M30 32l4-1l-2 4z" fill="#7E2D14"/></svg>
