<svg xmlns="http://www.w3.org/2000/svg" viewBox="0 0 120 120" role="img" aria-labelledby="logoTitle"><title id="logoTitle">RINOTSUKA — development engineer</title><g fill="none" stroke="#5A4530" stroke-width="1.6" stroke-linecap="round" opacity="0.45"><path d="M40 84q4 4 8 0"/><path d="M54 90q4 4 8 0"/><path d="M70 84q4 4 8 0"/></g><path d="M22 70q-2-22 18-32q22-10 40-2q22 10 24 32q2 22-18 30q-22 8-42 4q-22-4-22-32z" fill="#FAF3E5" stroke="#2A2418" stroke-width="2.6" stroke-linejoin="round"/><path d="M40 36q-2-16 14-22q18-6 28 4q12 10 8 22q-4 14-22 18q-22 4-28-6q-4-8 0-16z" fill="#F4E5BB" stroke="#2A2418" stroke-width="2.6" stroke-linejoin="round"/><g fill="none" stroke-linecap="round"><path d="M52 14q4-8 10-8" stroke="#E8B85E" stroke-width="3.6"/><path d="M62 8q2-6 6-4" stroke="#E8B85E" stroke-width="3.6"/><path d="M70 12q6-2 8 4" stroke="#E8B85E" stroke-width="3.6"/><path d="M52 14q4-8 10-8" stroke="#2A2418" stroke-width="2"/><path d="M62 8q2-6 6-4" stroke="#2A2418" stroke-width="2"/><path d="M70 12q6-2 8 4" stroke="#2A2418" stroke-width="2"/></g><ellipse cx="40" cy="44" rx="6" ry="4.5" fill="#E68B6F" opacity="0.85"/><ellipse cx="78" cy="44" rx="6" ry="4.5" fill="#E68B6F" opacity="0.85"/><circle cx="50" cy="34" r="3" fill="#2A2418"/><circle cx="50.6" cy="33.4" r="0.9" fill="#FAF3E5"/><path d="M55 44l7-1l-3 7z" fill="#7E2D14" stroke="#2A2418" stroke-width="1.6" stroke-linejoin="round"/><g fill="none" stroke="#8B5E1B" stroke-width="1.8" stroke-linecap="round"><path d="M100 40l0 6"/><path d="M97 43l6 0"/><path d="M16 60l0 5"/><path d="M13 62.5l6 0"/></g></svg>
