<svg xmlns="http://www.w3.org/2000/svg" viewBox="0 0 120 120" role="img" aria-labelledby="logoTitle"><title id="logoTitle">RINOTSUKA — development engineer</title><path fill="#FBE3E8" d="M60 10c14 0 22 6 28 12 12 0 22 8 22 22 0 8-4 14-10 18 2 6 0 14-6 18-4 2-8 4-14 4-6 6-14 10-22 10s-16-4-22-10c-8 0-14-2-18-8-4-6-4-14 0-20-4-4-6-10-6-16 0-12 8-20 18-22 6-6 16-12 30-12z"/><circle cx="60" cy="60" r="28" fill="#FFF6E5"/><path fill="#F4E29A" d="M46 40c2-8 6-14 12-18 2 6 4 12 6 18-6-2-12-2-18 0z"/><circle cx="46" cy="66" r="4" fill="#F4B6C2"/><circle cx="74" cy="66" r="4" fill="#F4B6C2"/><circle cx="52" cy="58" r="2.4" fill="#3F3A45"/><circle cx="68" cy="58" r="2.4" fill="#3F3A45"/><path fill="#D98AA0" d="M57 70h6l-3 5z"/></svg>
